<?xml version="1.0" standalone="no"?>
<!DOCTYPE svg PUBLIC "-//W3C//DTD SVG 20010904//EN"
 "http://www.w3.org/TR/2001/REC-SVG-20010904/DTD/svg10.dtd">
<svg version="1.0" xmlns="http://www.w3.org/2000/svg"
 width="512.000000pt" height="512.000000pt" viewBox="0 0 512.000000 512.000000"
 preserveAspectRatio="xMidYMid meet">
<metadata>
Created by potrace 1.14, written by Peter Selinger 2001-2017
</metadata>
<g transform="translate(0.000000,512.000000) scale(0.100000,-0.100000)"
fill="#000000" stroke="none">
<path d="M834 5105 c-220 -40 -386 -126 -539 -280 -129 -129 -214 -277 -263
-454 l-27 -96 0 -1715 0 -1715 27 -96 c49 -177 134 -325 263 -454 131 -132
271 -213 455 -264 l95 -26 1650 -3 c1709 -3 1761 -2 1898 38 384 111 667 440
717 831 14 115 14 3263 0 3378 -43 342 -290 668 -601 792 -209 83 -116 79
-1969 78 -1283 -1 -1650 -4 -1706 -14z m2596 -1049 c426 -213 787 -399 802
-413 56 -54 61 -88 55 -356 -8 -353 -51 -622 -147 -922 -240 -754 -701 -1292
-1398 -1632 -136 -67 -169 -66 -322 9 -807 398 -1322 1111 -1480 2050 -47 283
-65 663 -36 761 29 96 -4 77 849 503 l791 396 56 -4 c49 -4 144 -49 830 -392z"/>
<path d="M1925 3721 l-650 -327 1 -180 c2 -521 181 -1058 490 -1471 76 -101
257 -288 359 -370 107 -87 265 -191 376 -248 l91 -47 61 33 c653 342 1062 917
1216 1709 17 89 39 295 46 437 l7 132 -661 331 c-364 181 -667 329 -673 329
-7 -1 -305 -149 -663 -328z m1419 -584 c69 -67 126 -129 126 -137 0 -17 -1050
-1070 -1066 -1070 -5 0 -164 155 -354 345 l-345 345 135 135 135 135 215 -215
215 -215 400 400 c220 220 403 400 406 400 3 0 63 -55 133 -123z"/>
</g>
</svg>
